<?xml version="1.0" encoding="utf-8"?>
<!-- Generator: Adobe Illustrator 16.0.3, SVG Export Plug-In . SVG Version: 6.00 Build 0)  -->
<svg version="1.2" baseProfile="tiny" id="Ebene_1" xmlns="http://www.w3.org/2000/svg" xmlns:xlink="http://www.w3.org/1999/xlink"
	 x="0px" y="0px" width="104px" height="42px" viewBox="0 0 104 42" xml:space="preserve">
<g>
	<path fill="#505050" d="M104,21c0,11.487-9.314,20.801-20.801,20.801H20.801C9.311,41.801,0,32.487,0,21l0,0
		C0,9.513,9.311,0.199,20.801,0.199h62.398C94.686,0.199,104,9.513,104,21L104,21z"/>
	<path fill="#FFFFFF" d="M83.199,21c0,2.3-1.863,4.16-4.16,4.16H24.961c-2.301,0-4.16-1.86-4.16-4.16l0,0
		c0-2.297,1.859-4.16,4.16-4.16h54.078C81.336,16.84,83.199,18.703,83.199,21L83.199,21z"/>
	<path fill="#BEBEBE" d="M37.439,21c0,9.186-7.449,16.641-16.639,16.641S4.16,30.186,4.16,21c0-9.19,7.451-16.641,16.641-16.641
		S37.439,11.81,37.439,21z"/>
	<circle fill="#969696" cx="20.8" cy="21" r="14.56"/>
</g>
</svg>
