<?xml version="1.0" encoding="utf-8"?>
<!-- Generator: Adobe Illustrator 16.0.3, SVG Export Plug-In . SVG Version: 6.00 Build 0)  -->
<svg version="1.2" baseProfile="tiny" id="Ebene_1" xmlns="http://www.w3.org/2000/svg" xmlns:xlink="http://www.w3.org/1999/xlink"
	 x="0px" y="0px" width="104px" height="42px" viewBox="0 0 104 42" xml:space="preserve">
<g>
	<path fill="#505050" d="M0,21C0,9.513,9.311,0.199,20.801,0.199h62.398C94.686,0.199,104,9.513,104,21l0,0
		c0,11.487-9.314,20.801-20.801,20.801H20.801C9.311,41.801,0,32.487,0,21L0,21z"/>
	<path fill="#FFFFFF" d="M83.199,21.26c0,2.296-1.863,4.162-4.16,4.162H24.961c-2.299,0-4.16-1.865-4.16-4.162l0,0
		c0-2.297,1.861-4.161,4.16-4.161h54.078C81.336,17.099,83.199,18.963,83.199,21.26L83.199,21.26z"/>
	<path fill="#BEBEBE" d="M66.558,21c0-9.188,7.455-16.641,16.642-16.641c9.191,0,16.641,7.453,16.641,16.641
		c0,9.188-7.449,16.641-16.641,16.641C74.013,37.641,66.558,30.188,66.558,21z"/>
	<path fill="#FFFFFF" d="M68.641,21c0-8.038,6.52-14.56,14.559-14.56S97.763,12.962,97.763,21s-6.524,14.558-14.563,14.558
		S68.641,29.038,68.641,21z"/>
</g>
</svg>
